PathFileType	4	(X/Y/Z)	D:\Share\Shared_Data\Ergonomics\Sit To Stand Pertubation\S1\Perturbed_NoHarness.trc
DataRate	CameraRate	NumFrames	NumMarkers	Units	OrigDataRate	OrigDataStartFrame	OrigNumFrames	
100	100	17	18	m	100	3301	231
Frame#	Time	L_ASIS			R_ASIS			R_Pelvis			V_Sacral			L_Pelvis			Clavical			R_Acromium			L_Acromium			Sternum			Torso			R_Thigh_Med			R_Thigh_Lat			R_Thigh			R_Shank_Med			R_Shank_Lat			R_Shank			R_Heel			R_Toe			
		X1	Y1	Z1	X2	Y2	Z2	X3	Y3	Z3	X4	Y4	Z4	X5	Y5	Z5	X6	Y6	Z6	X7	Y7	Z7	X8	Y8	Z8	X9	Y9	Z9	X10	Y10	Z10	X11	Y11	Z11	X12	Y12	Z12	X13	Y13	Z13	X14	Y14	Z14	X15	Y15	Z15	X16	Y16	Z16	X17	Y17	Z17	X18	Y18	Z18	

3301	33	0.034862396	0.6503302	-0.096112907	-0.05296188	0.62765948	0.13647974	0.02839669	0.63796393	0.1053148	-0.15433582	0.56824457	0.016267553	-0.058441364	0.62980768	-0.13549802	0.053096741	0.9660769	0.0036983666	-0.0091369371	1.0393463	0.1503381	-0.04175214	0.99861096	-0.1959136	0.037208027	0.98031445	0.10453249	0.052777828	0.97040533	-0.055958057	0.32742279	0.41191394	0.039882839	0.32508624	0.43634897	0.16036143	0.19762132	0.55125287	0.11248874	0.3436987	0.094458382	0.10772611	0.31886893	0.099468475	0.18578551	0.32030042	0.31221686	0.18587135	0.27313281	0.043357262	0.14037178	0.47741861	0.053601273	0.14851576
3302	33.01	0.034908184	0.65026752	-0.09610611	-0.052902653	0.627664	0.13644397	0.028433151	0.63805377	0.10528662	-0.15430208	0.56827545	0.016266098	-0.058419437	0.62981183	-0.13549364	0.054497963	0.96573859	0.0036476409	-0.0073208551	1.0392803	0.15038165	-0.040458122	0.99865088	-0.19586765	0.038710957	0.9800155	0.10450521	0.054230339	0.97000336	-0.05605994	0.3274267	0.41191333	0.039809685	0.32509003	0.43639215	0.16028642	0.19756741	0.55125073	0.11234274	0.34370126	0.094464218	0.10771181	0.3188739	0.099491577	0.1857701	0.32031201	0.31224707	0.18582158	0.2731333	0.043358673	0.14036969	0.47742053	0.053614437	0.1485152
3303	33.02	0.034941055	0.65020319	-0.096102577	-0.052855572	0.62768292	0.13642152	0.028462574	0.63812628	0.10524411	-0.1542702	0.56830188	0.016265236	-0.05840947	0.62981195	-0.1354899	0.055982254	0.96537604	0.0035906532	-0.0053852868	1.0391926	0.15042999	-0.039090134	0.99870166	-0.19582166	0.040307724	0.97968317	0.10447572	0.055759243	0.96957617	-0.056175888	0.32742593	0.41191733	0.039740326	0.32509003	0.43643835	0.16021631	0.19750502	0.55125732	0.11220312	0.34370352	0.094472672	0.1076972	0.31887872	0.099516167	0.18575459	0.32032132	0.31227881	0.18577484	0.27313376	0.043360363	0.14036748	0.47742255	0.053632153	0.14851497
3304	33.03	0.034960484	0.65013678	-0.096103325	-0.052821903	0.62772345	0.13641843	0.028484587	0.63818188	0.10518994	-0.15424149	0.56832263	0.016265026	-0.058412308	0.6298078	-0.13548663	0.057554653	0.9649859	0.0035279691	-0.0033218849	1.0390804	0.15048299	-0.037639229	0.9987641	-0.19577505	0.042004868	0.97931433	0.10444425	0.05736956	0.9691214	-0.056305531	0.32741943	0.4119256	0.039677078	0.32508539	0.43648688	0.16015338	0.19743517	0.5512749	0.11207211	0.34370496	0.094483849	0.10768227	0.31888293	0.09954174	0.18573895	0.32032709	0.31231116	0.18573245	0.27313394	0.043362431	0.14036507	0.47742471	0.053654552	0.14851494
3305	33.04	0.034966888	0.65006781	-0.096109291	-0.052802326	0.62779346	0.13644112	0.028499388	0.63822137	0.10512696	-0.15421736	0.56833722	0.016265438	-0.058428169	0.62979938	-0.13548372	0.059219894	0.96456427	0.003460433	-0.0011227856	1.0389407	0.15054039	-0.036096066	0.99883801	-0.19572714	0.043808468	0.97890601	0.10441104	0.059066536	0.96863617	-0.056447845	0.32740622	0.41193793	0.039622433	0.32507526	0.43653696	0.16010016	0.1973586	0.55130579	0.11195167	0.3437052	0.094497833	0.10766692	0.31888623	0.099567627	0.1857229	0.32032791	0.31234299	0.18569579	0.27313379	0.043364952	0.14036217	0.47742697	0.053681305	0.14851474
3306	33.05	0.03496183	0.64999536	-0.096121353	-0.052796837	0.62790063	0.13649585	0.028507908	0.63824591	0.10505811	-0.1541993	0.56834473	0.016266363	-0.058456535	0.62978699	-0.13548071	0.060982365	0.96410687	0.0033891912	0.0012192307	1.0387703	0.15060199	-0.034451042	0.99892224	-0.19567706	0.045723991	0.97845551	0.10437646	0.060855667	0.96811713	-0.056601025	0.32738541	0.41195398	0.039578972	0.32505869	0.43658792	0.1600592	0.19727545	0.55135162	0.11184354	0.34370358	0.094514671	0.10765102	0.31888791	0.099593163	0.18570616	0.32032224	0.31237323	0.18566626	0.27313318	0.043368004	0.1403586	0.47742926	0.053711494	0.14851385
3307	33.06	0.034948128	0.64991821	-0.096140182	-0.052804554	0.62805267	0.13658821	0.028511957	0.63825592	0.10498623	-0.15418866	0.56834491	0.016267595	-0.058496006	0.62977112	-0.1354772	0.06284626	0.96360895	0.0033157015	0.0037106216	1.0385664	0.15066742	-0.032694405	0.99901447	-0.19562384	0.047756256	0.97795984	0.10434097	0.062742702	0.96756018	-0.056762478	0.32735608	0.41197369	0.039549267	0.3250347	0.4366391	0.16003304	0.19718523	0.55141333	0.11174922	0.34369934	0.094534378	0.10763438	0.31888745	0.099617561	0.18568829	0.32030865	0.31240054	0.18564545	0.27313208	0.043371643	0.140354	0.47743149	0.053743401	0.1485116
3308	33.07	0.03492997	0.64983453	-0.096166176	-0.052823696	0.62825543	0.1367226	0.028514338	0.63825159	0.10491409	-0.15418661	0.56833783	0.016268873	-0.058544163	0.62975244	-0.13547258	0.064815674	0.96306586	0.0032417269	0.0063570132	1.0383262	0.15073642	-0.030816399	0.99911121	-0.19556627	0.049909386	0.97741656	0.10430531	0.064733688	0.96696094	-0.056928902	0.32731747	0.41199683	0.039535812	0.32500229	0.43668982	0.16002415	0.19708669	0.55149133	0.11167021	0.3436915	0.094556931	0.10761668	0.31888394	0.099640076	0.1856687	0.32028571	0.31242392	0.18563475	0.27313043	0.043375916	0.14034801	0.47743347	0.053774403	0.14850711
3309	33.08	0.034912903	0.64974207	-0.096199371	-0.052851402	0.62851282	0.13690149	0.028518919	0.63823291	0.10484435	-0.15419392	0.5683241	0.01626989	-0.058597496	0.62973236	-0.13546622	0.066894775	0.96247272	0.0031693115	0.0091631937	1.0380469	0.15080881	-0.028807367	0.99920807	-0.19550264	0.052186886	0.97682324	0.10427047	0.066834984	0.96631482	-0.057096401	0.32726913	0.41202341	0.039540916	0.32496051	0.43673962	0.16003481	0.19697781	0.55158466	0.11160793	0.34367914	0.094582291	0.10759758	0.31887671	0.099659973	0.18564684	0.32025211	0.31244214	0.1856356	0.27312805	0.043380848	0.14034018	0.47743503	0.053800865	0.14849936
3310	33.09	0.034903793	0.64963837	-0.096239357	-0.052883755	0.62882605	0.13712492	0.02853064	0.63819855	0.10477956	-0.15421071	0.56830469	0.016270359	-0.058651402	0.62971222	-0.13545743	0.069088058	0.96182538	0.0031007364	0.012133175	1.0377263	0.15088449	-0.026657864	0.99930017	-0.19543076	0.054591736	0.97617792	0.10423783	0.069053246	0.96561725	-0.057260696	0.32721082	0.41205362	0.039566586	0.32490857	0.43678809	0.16006705	0.19685599	0.55169202	0.11156378	0.34366113	0.094610352	0.10757668	0.31886484	0.099676537	0.18562196	0.32020679	0.31245453	0.18564932	0.27312506	0.043386429	0.14033014	0.47743594	0.053818142	0.14848708
3311	33.1	0.034910648	0.64952032	-0.096285301	-0.052915764	0.62919299	0.13739037	0.028555454	0.63814685	0.10472214	-0.15423637	0.56828174	0.016270041	-0.058700169	0.62969391	-0.13544543	0.071400482	0.96111957	0.0030384648	0.015270331	1.0373623	0.15096361	-0.024358717	0.99938153	-0.1953476	0.05712661	0.97547833	0.10420908	0.071395493	0.96486383	-0.057417362	0.32714258	0.41208765	0.039614399	0.32484598	0.43683499	0.16012248	0.19671846	0.55181079	0.11153912	0.34363641	0.094640999	0.1075535	0.31884741	0.099689194	0.18559341	0.32014911	0.31246039	0.1856769	0.27312137	0.043392624	0.1403174	0.47743604	0.053820618	0.14846896
3312	33.11	0.034942375	0.6493847	-0.096335785	-0.052941391	0.62960828	0.13769232	0.028600172	0.63807513	0.1046744	-0.15426947	0.56825757	0.016268805	-0.058737103	0.62967963	-0.13542946	0.073837769	0.96035223	0.0029850767	0.01857761	1.0369531	0.15104649	-0.021901066	0.99944617	-0.19524919	0.05979414	0.97472272	0.10418635	0.073869102	0.96405078	-0.057562054	0.32706488	0.41212579	0.03968544	0.32477243	0.4368801	0.16020227	0.19656252	0.55193799	0.11153519	0.34360394	0.094674103	0.10752756	0.31882358	0.099697479	0.18556052	0.32007883	0.31245953	0.18571913	0.273117	0.043399364	0.14030162	0.47743521	0.053801952	0.1484436
3313	33.12	0.035008469	0.64922797	-0.096388962	-0.052953716	0.63006299	0.13802272	0.028672255	0.63797986	0.10463854	-0.15430763	0.56823584	0.016266665	-0.058754673	0.62967157	-0.13540865	0.076406517	0.95952063	0.0029432013	0.022057816	1.0364966	0.15113391	-0.019276331	0.99948804	-0.19513045	0.062597198	0.97390942	0.1041721	0.076481819	0.96317499	-0.057690697	0.32697864	0.41216837	0.039780197	0.32468817	0.43692328	0.16030698	0.19638608	0.55207007	0.11155297	0.34356268	0.094709457	0.10749844	0.31879239	0.099701126	0.18552275	0.31999612	0.3124519	0.18577643	0.27311212	0.043406532	0.14028249	0.47743338	0.053755386	0.14840958
3314	33.13	0.035118633	0.64904675	-0.096442528	-0.052945087	0.63054584	0.13837141	0.028779558	0.63785742	0.10461658	-0.1543475	0.5682204	0.016263792	-0.058744781	0.62967255	-0.13538211	0.079114388	0.95862256	0.0029154527	0.02571397	1.0359919	0.15122679	-0.016476122	0.99950146	-0.19498509	0.065539268	0.97303668	0.10416911	0.07924192	0.96223425	-0.057799568	0.3268851	0.41221573	0.039898495	0.3245939	0.43696448	0.16043654	0.19618814	0.55220312	0.11159309	0.34351187	0.094746902	0.10746577	0.31875317	0.099700089	0.18547971	0.31990198	0.31243793	0.18584886	0.27310669	0.043413982	0.14025981	0.4774306	0.053674187	0.14836551
3315	33.14	0.035282372	0.64883759	-0.096493828	-0.052907379	0.63104346	0.13872679	0.028930017	0.63770355	0.1046103	-0.15438496	0.56821576	0.016260534	-0.058699013	0.62968506	-0.13534894	0.0819702	0.95765668	0.0029043796	0.02954969	1.0354371	0.15132643	-0.013492087	0.9994809	-0.19480563	0.068624817	0.97210315	0.10418038	0.082158188	0.96122723	-0.057885284	0.32678613	0.41226825	0.040039463	0.32449091	0.43700354	0.16059026	0.19596895	0.55233313	0.11165573	0.34345087	0.09478624	0.10742931	0.31870532	0.099694542	0.18543118	0.31979785	0.31241833	0.18593605	0.27310092	0.043421509	0.14023364	0.47742715	0.053552223	0.1483103
3316	33.15	0.03550856	0.64859729	-0.096540024	-0.05283223	0.63154163	0.13907684	0.02913131	0.63751379	0.10462115	-0.15441518	0.56822711	0.016257412	-0.058608986	0.62971179	-0.13530814	0.084984001	0.95662091	0.0029124241	0.033569603	1.0348311	0.15143439	-0.010315677	0.99942145	-0.19458377	0.071859558	0.97110712	0.10420899	0.085239983	0.96015338	-0.057944725	0.32668375	0.41232599	0.04020153	0.3243812	0.43704044	0.16076666	0.19573036	0.55245624	0.11174059	0.34337939	0.094827339	0.10738901	0.31864835	0.099684944	0.18537727	0.31968604	0.31239423	0.18603719	0.27309482	0.043428909	0.14020407	0.47742319	0.053384575	0.1482431
3317	33.16	0.035805061	0.64832318	-0.096578224	-0.052711388	0.63202661	0.13941017	0.029390568	0.63728436	0.10465017	-0.15443274	0.56825952	0.016255081	-0.058466663	0.62975531	-0.13525873	0.088166954	0.95551355	0.002941896	0.037779751	1.0341721	0.15155234	-0.006937891	0.99931915	-0.19431068	0.075250778	0.970047	0.10425797	0.088497353	0.95901337	-0.057974792	0.32658057	0.41238916	0.040382454	0.32426749	0.43707492	0.16096355	0.19547581	0.55256897	0.11184672	0.34329749	0.094870056	0.10734502	0.31858209	0.099672043	0.18531831	0.31956946	0.31236688	0.18615114	0.27308844	0.043435909	0.14017151	0.47741916	0.053168217	0.14816347
